HIERARCHY
ROOT Hips
{
	OFFSET 0.000000 0.000000 0.000000 
	CHANNELS 6 Xposition Yposition Zposition Yrotation Zrotation Xrotation 
	JOINT Lumbar
	{
		OFFSET 0.000000 0.000000 0.000000 
		CHANNELS 3 Zrotation Xrotation Yrotation
		JOINT Neck
		{
			OFFSET 0.000000 0.445665 0.000000 
			CHANNELS 3 Zrotation Xrotation Yrotation
			End Site
			{
				OFFSET 0.000000 0.227535 0.000000 
			}
		}
		JOINT RightShoulder
		{
			OFFSET 0.019635 0.377685 0.194865 
			CHANNELS 3 Zrotation Xrotation Yrotation
			JOINT RightElbow
			{
				OFFSET 0.000000 -0.243375 0.000000 
				CHANNELS 2 Zrotation Yrotation
				JOINT RightWrist
				{
					OFFSET 0.000000 -0.264825 0.000000 
					CHANNELS 2 Zrotation Xrotation
					End Site
					{
						OFFSET 0.006600 -0.176220 0.000990 
					}
				}
			}
		}
		JOINT LeftShoulder
		{
			OFFSET 0.019635 0.377685 -0.194865 
			CHANNELS 3 Zrotation Xrotation Yrotation
			JOINT LeftElbow
			{
				OFFSET 0.000000 -0.243375 0.000000 
				CHANNELS 2 Zrotation Yrotation
				JOINT LeftWrist
				{
					OFFSET 0.000000 -0.264825 0.000000 
					CHANNELS 2 Zrotation Xrotation
					End Site
					{
						OFFSET 0.006600 -0.176220 -0.000990 
					}
				}
			}
		}
	}
	JOINT RightHip
	{
		OFFSET 0.052140 -0.069960 0.075570 
		CHANNELS 3 Zrotation Xrotation Yrotation
		JOINT RightKnee
		{
			OFFSET 0.000000 -0.402270 0.000000 
			CHANNELS 1 Zrotation
			JOINT RightAnkle
			{
				OFFSET 0.000000 -0.404085 0.000000 
				CHANNELS 3 Zrotation Xrotation Yrotation
				End Site
				{
					OFFSET 0.204105 -0.089430 0.008415 
				}
			}
		}
	}
	JOINT LeftHip
	{
		OFFSET 0.052140 -0.069960 -0.075570 
		CHANNELS 3 Zrotation Xrotation Yrotation
		JOINT LeftKnee
		{
			OFFSET 0.000000 -0.402270 0.000000 
			CHANNELS 1 Zrotation
			JOINT LeftAnkle
			{
				OFFSET 0.000000 -0.404085 0.000000 
				CHANNELS 3 Zrotation Xrotation Yrotation
				End Site
				{
					OFFSET 0.204105 -0.089430 -0.008415 
				}
			}
		}
	}
}
MOTION
Frames: 11
Frame Time: 0.02
0 0.95578 -0 152.76649 0 -2.70598 4.86848 4.15537 -5.31622 -33.17726 4.75208 5.45835 26.46573 -21.74923 12.35233 9.28258 81.11363 -1.92737 -4.05918 20.87576 9.22103 -12.89344 5.79416 -80.56005 -1.5181 -0.55664 -4.68302 9.20674 -2.541 -7.36549 -7.79206 -2.11722 -7.55977 -3.30247 7.37462 20.05213 -6.36294 -6.04836 2.40579 8.14084
-0.00102 0.95572 0.00083 152.64745 0 -2.72046 4.96022 4.18484 -5.14165 -33.30368 4.70601 5.5561 26.28106 -21.68043 12.10807 9.20791 81.18035 -1.87274 -3.94785 21.12066 9.2439 -12.74697 6.07501 -80.61231 -1.78507 -0.11977 -4.59603 9.15825 -2.40894 -7.59221 -7.62394 -2.14873 -7.65492 -3.36694 7.306 20.23313 -6.33891 -6.0284 2.41742 8.15482
-0.00204 0.95565 0.00165 152.52922 0 -2.73446 5.05196 4.21388 -4.96949 -33.43066 4.66166 5.65407 26.10299 -21.61473 11.87325 9.14137 81.25681 -1.82712 -3.84172 21.37088 9.26438 -12.60391 6.36005 -80.67506 -2.05759 0.32005 -4.50844 9.10986 -2.27705 -7.82026 -7.45502 -2.18044 -7.75087 -3.43137 7.23751 20.41222 -6.3148 -6.00844 2.42897 8.16873
-0.00305 0.95557 0.00246 152.41271 0 -2.74668 5.14246 4.24112 -4.80262 -33.55589 4.6224 5.753 25.93452 -21.55741 11.66224 9.09359 81.32371 -1.79091 -3.75523 21.63131 9.27843 -12.4698 6.65466 -80.74142 -2.33613 0.77783 -4.41699 9.06122 -2.14403 -8.0561 -7.28108 -2.21327 -7.8515 -3.49628 7.16856 20.58576 -6.28927 -5.98871 2.44016 8.18241
-0.0041 0.95552 0.00336 152.28666 0 -2.76832 5.23693 4.27747 -4.6046 -33.68415 4.55459 5.84581 25.6972 -21.45162 11.31126 8.93044 81.38253 -1.67341 -3.56466 21.82155 9.32994 -12.28427 6.88629 -80.74217 -2.55993 1.14277 -4.34525 9.01365 -2.01641 -8.251 -7.13349 -2.24017 -7.92797 -3.55873 7.10163 20.78915 -6.27007 -5.96826 2.45311 8.19711
-0.00506 0.95542 0.00405 152.18119 0 -2.77 5.32468 4.29482 -4.47478 -33.8101 4.5483 5.95218 25.61792 -21.45121 11.26605 9.02234 81.49819 -1.74929 -3.59442 22.17096 9.29988 -12.2104 7.25929 -80.91318 -2.91483 1.70212 -4.23237 8.96405 -1.87789 -8.5321 -6.93049 -2.27956 -8.05504 -3.62623 7.03079 20.92889 -6.23835 -5.94902 2.46241 8.20981
-0.00573 0.95519 0.00423 152.1291 0 -2.71473 5.38087 4.25571 -4.518 -33.89672 4.70863 6.09407 25.88506 -21.7295 12.0146 9.76202 81.43338 -2.20071 -4.25536 22.89297 9.05635 -12.43236 7.98371 -81.30446 -3.52899 2.84699 -3.99429 8.9059 -1.70031 -9.06961 -6.56172 -2.35606 -8.33429 -3.70976 6.94457 20.89148 -6.16521 -5.93485 2.46094 8.21703
-0.00631 0.95491 0.0042 152.09813 0 -2.63962 5.43276 4.19821 -4.63237 -33.98673 4.9315 6.24996 26.32758 -22.11671 13.08062 10.77433 81.48015 -2.87628 -5.13477 23.78781 8.72915 -12.77019 8.8632 -81.90913 -4.29819 4.18014 -3.71648 8.84625 -1.51282 -9.69139 -6.13901 -2.44472 -8.66273 -3.79733 6.85536 20.78909 -6.08227 -5.92117 2.45601 8.22317
-0.00695 0.95466 0.00423 152.06 0 -2.57468 5.49508 4.15154 -4.72495 -34.09732 5.12853 6.40112 26.75013 -22.46252 14.03713 11.69473 81.70536 -3.55396 -5.90096 24.64938 8.43085 -13.06265 9.69257 -82.58565 -5.06018 5.39736 -3.46411 8.78905 -1.33586 -10.26333 -5.74871 -2.52625 -8.96082 -3.88282 6.77009 20.71845 -6.00602 -5.9066 2.45295 8.22861
-0.00752 0.9544 0.00441 152.01257 0 -2.50474 5.52146 4.09404 -4.77535 -34.11631 5.31607 6.54619 26.92475 -22.77427 14.8525 12.46398 80.99545 -3.79573 -6.72801 25.32383 8.16653 -13.3218 10.41811 -82.56974 -5.5424 6.74386 -3.18075 8.72411 -1.13487 -10.88386 -5.32484 -2.61473 -9.29231 -3.97254 6.67305 20.64228 -5.91346 -5.89646 2.44818 8.23522
-0.0082 0.95414 0.00422 151.98829 0 -2.44066 5.62185 4.05522 -4.92758 -34.32465 5.53647 6.70623 27.65217 -23.18263 16.03014 13.63293 82.21952 -4.99493 -7.47755 26.424 7.8173 -13.68101 11.41912 -84.02141 -6.66016 7.86424 -2.95231 8.6753 -0.97987 -11.42327 -4.95845 -2.69139 -9.56632 -4.05037 6.60093 20.55735 -5.86118 -5.87519 2.4467 8.24396
